<?xml version="1.0" encoding="UTF-8"?>
<svg id="_レイヤー_1のコピー_12" data-name="レイヤー 1のコピー 12" xmlns="http://www.w3.org/2000/svg" viewBox="0 0 1080 1080">
  <path id="_パス_3" data-name="パス 3" d="M225,0H855c124.27,0,225,100.74,225,225V855c0,124.27-100.74,225-225,225H225C100.74,1080,0,979.26,0,855V225C0,100.74,100.74,0,225,0Z" style="fill: none;"/>
  <path d="M856.53,230.86c-76.04-64.32-184.76-101.89-317.7-101.86-126.17,0-233.87,35.58-310.92,99.06-38.48,31.69-69.12,70.36-89.98,114.35-20.88,43.97-31.91,93.14-31.9,145.34-.03,63.11,13.19,121.4,39.87,172.26,25.44,48.61,63.25,89.95,111.42,122.28-11.39,47.94-27.39,116.46-27.39,116.49-.73,3.08-1.12,6.28-1.1,9.54-.03,12.87,5.98,25.26,16.4,33.25l.06,.05,.02,.02c7.47,5.68,16.46,8.58,25.44,8.58,6.76,0,13.62-1.64,19.81-4.98l.62-.32,.61-.37s8.6-5.1,21.8-12.92c19.79-11.71,49.92-29.52,76.81-45.36,13.43-7.91,26.06-15.33,36.16-21.21,10.03-5.87,17.77-10.35,20.62-11.93l.14-.08,.19-.11c37.48-21.24,67.33-24.82,91.32-24.94,99.53-.14,205.56-19.44,290.22-72.28,42.22-26.46,78.96-61.75,104.82-106.94,25.9-45.15,40.51-99.81,40.46-163.08,.21-99.51-41.69-190.69-117.8-254.85Zm20.64,385.46c-14.94,26.07-34.55,48.02-58.05,66.62-35.23,27.86-79.47,47.97-128,60.94-48.5,13-101.15,18.8-152.28,18.79-31.4-.13-75.26,5.79-123.39,33.38v-.02c-5.33,2.97-17.18,9.87-32.81,19.03-22.42,13.16-51.93,30.56-76.57,45.13,6.01-25.6,12.98-55.24,18.2-77.02v-.03c.86-3.64,1.48-7.58,1.5-12.06,.06-6.32-1.56-14.02-5.21-20.43-2.7-4.8-6.17-8.58-9.22-11.16-4.64-3.88-8.13-5.55-10.08-6.62l-1.96-1-.22-.13c-42.66-27.48-74.03-61.61-95.29-102.07-21.23-40.52-32.39-87.81-32.41-141.93,.02-43.08,8.98-82.29,25.58-117.33,24.96-52.47,67.27-95.99,125.13-127.01,57.81-30.96,131.26-49.07,216.76-49.07,120.88,.03,213.57,33.97,275.5,86.41,61.85,52.61,94.46,123.46,94.67,204.97-.05,53.43-11.98,95.84-31.83,130.62Z" style="fill: #4c4b4c;"/>
  <path d="M718.42,507.49c7.21-8.23,11.96-18.72,11.96-30.3,0-29.82-24.26-54.08-54.06-54.08h-69.03c-15.16-.7-18.86-3.57-19.01-3.69l-.12-.17c.41-4.01,7.36-13.82,10.77-18.6,4.89-6.87,9.51-13.36,12.14-20.58l1.17-3.16c6.74-18.14,19.31-51.92,5.69-90.74-8.26-23.54-26.62-38.18-47.91-38.18-24.79,0-45.41,19.83-50.12,48.25-1.58,9.56-22.54,45.6-62.55,92.65-11.07,13.02-23.56,23.84-36.77,35.3-10.44,9.04-21.23,18.38-32.68,29.82-30.01,30-44.3,80.86-36.4,129.54,6.83,42.14,28.82,74.45,61.92,91,27.11,13.56,79.76,21.14,119.91,22.62,16.8,.62,29.46,.91,39.85,.91,19.86,0,29.74-1.11,42.24-2.53l4.22-.47,.71-.08,20.29-2.94,.39-.06c26.28-4.29,45.34-26.67,45.34-53.24l-.04-1.91c15.34-9.52,25.33-26.44,25.33-45.74,0-6.54-1-12.22-2.73-17.16,10.48-9.86,17-23.83,17-39.21,0-9.82-2.71-19.19-7.49-27.26Zm-40.69,3.57h15.82c6.47,5.85,10.56,14.26,10.56,23.69,0,10.07-4.71,18.94-11.96,24.82h-21.21c-4.01,0-7.25,3.24-7.25,7.25s3.24,7.27,7.25,7.27h13.24c4.4,4.93,5.66,10.75,5.66,17.03,0,10.01-4.66,18.86-11.84,24.72h-20.4c-4.02,0-7.27,3.26-7.27,7.27s3.24,7.25,7.27,7.25h5.74c.77,2.68,1.21,5.48,1.21,8.41,0,16.04-11.72,29.23-27.06,31.73l-20.29,2.94c-14.7,1.62-23.32,2.86-44.05,2.86-9.73,0-22.11-.28-39.04-.91-38.36-1.41-87.58-8.63-110.98-20.33-65.52-32.76-65.56-139.94-19.85-185.65,25.81-25.81,49.64-41.7,70.63-66.4,32.43-38.14,64.19-83.43,67.45-103.21,3.21-19.39,15.81-30.03,28.63-30.03,10.77,0,21.7,7.51,27.36,23.63,11.78,33.6-1.06,63.51-6.76,79.17-5.74,15.69-37.4,41.15-18.1,61.85,7.17,7.69,21.25,9.92,34.3,10.48h69.52c17.84,0,32.28,14.45,32.28,32.28,0,7.62-4.31,14.48-10.03,19.34h-20.84c-4.01,0-7.27,3.24-7.27,7.25s3.25,7.28,7.26,7.28Z" style="fill: #4c4b4c; stroke: #4c4b4c; stroke-miterlimit: 10; stroke-width: 20px;"/>
</svg>