<?xml version="1.0" encoding="UTF-8"?>
<svg id="_レイヤー_1のコピー_13" data-name="レイヤー 1のコピー 13" xmlns="http://www.w3.org/2000/svg" viewBox="0 0 1080 1080">
  <path id="_パス_3" data-name="パス 3" d="M225,0H855c124.27,0,225,100.74,225,225V855c0,124.27-100.74,225-225,225H225C100.74,1080,0,979.26,0,855V225C0,100.74,100.74,0,225,0Z" style="fill: none;"/>
  <g>
    <path d="M857.19,223.18c-80.91-80.97-193.17-131.2-316.7-131.18-123.53-.02-235.8,50.21-316.7,131.18-80.98,80.91-131.21,193.18-131.19,316.71-.02,123.53,50.21,235.8,131.19,316.71,80.91,80.97,193.17,131.2,316.7,131.18,123.53,.03,235.79-50.21,316.7-131.18,80.98-80.91,131.22-193.18,131.19-316.71,.03-123.53-50.21-235.8-131.19-316.71Zm-65.68,65.69c64.31,64.38,103.95,152.84,103.98,251.02-.02,98.18-39.67,186.63-103.98,251.02-64.38,64.32-152.85,103.95-251.02,103.98-98.18-.02-186.63-39.66-251.02-103.98-64.31-64.38-103.95-152.83-103.98-251.02,.03-98.18,39.66-186.63,103.98-251.02,64.38-64.32,152.84-103.95,251.02-103.98,98.17,.03,186.63,39.66,251.02,103.98Z" style="fill: #4c4b4c;"/>
    <path d="M517.31,668.18c-24.86,0-45.02,20.15-45.02,45.01s20.16,45,45.02,45,44.99-20.17,44.99-45c0-24.86-20.15-45.01-44.99-45.01Z" style="fill: #4c4b4c;"/>
    <path d="M415.16,396.17l30.64,24.56c6.24,4.99,15.18,4.81,21.2-.44,0,0,3.77-6.8,15.56-13.54,11.86-6.7,27.24-12.09,50.23-12.17,20.05-.04,37.54,7.44,49.47,17.67,5.92,5.08,10.35,10.73,13.07,15.94,2.73,5.22,3.73,9.8,3.72,13.27-.05,11.74-2.34,19.43-5.64,25.96-2.51,4.9-5.78,9.23-10,13.43-6.29,6.3-14.84,12.12-24.42,17.47-9.59,5.39-19.93,10.16-30.37,15.91-11.91,6.61-24.53,16.09-33.85,30.31-4.65,7.02-8.29,15.08-10.6,23.56-2.33,8.52-3.39,17.42-3.39,26.5v17.66c0,9.12,7.41,16.55,16.56,16.55h39.87c9.14,0,16.54-7.43,16.54-16.55v-17.66c0-3.5,.4-5.77,.79-7.18,.65-2.15,1.02-2.68,2.11-3.99,1.1-1.24,3.32-3.14,7.41-5.4,5.98-3.36,15.6-7.89,26.49-13.79,16.31-8.92,36.13-21.01,52.84-40.98,8.31-9.98,15.66-21.97,20.75-35.78,5.11-13.83,7.88-29.38,7.85-46.02-.01-16.86-4.59-32.89-12.04-47.11-11.22-21.36-28.81-39.14-50.6-52.05-21.78-12.84-48.06-20.68-76.59-20.68-35.16-.09-64.38,9.08-86.42,21.77-22.14,12.64-31.69,27.34-31.69,27.34-3.72,3.24-5.82,7.93-5.74,12.84,.11,4.93,2.37,9.55,6.2,12.6Z" style="fill: #4c4b4c;"/>
  </g>
</svg>