<!--?xml version="1.0" encoding="utf-8"?-->
<!-- Generator: Adobe Illustrator 21.1.0, SVG Export Plug-In . SVG Version: 6.00 Build 0)  -->
<svg version="1.1" id="_x31_0" xmlns="http://www.w3.org/2000/svg" xmlns:xlink="http://www.w3.org/1999/xlink" x="0px" y="0px" viewBox="0 0 512 512" style="width: 256px; height: 256px; opacity: 1;" xml:space="preserve">
<style type="text/css">
	.st0{fill:#374149;}
</style>
<g>
	<path class="st0" d="M299.162,113.022c-3.898-6.926-10.031-12.382-17.305-15.519c-2.219-0.942-4.516-1.57-6.836-2.047
		c-0.082-0.019-0.164-0.027-0.246-0.043c-2.195-0.437-4.414-0.648-6.652-0.671c-0.11,0-0.215-0.031-0.321-0.031
		c-0.152,0-0.3,0.023-0.449,0.027c-1.172,0.011-2.34,0.07-3.516,0.199c-0.168,0.019-0.335,0.054-0.503,0.074
		c-1.219,0.153-2.438,0.266-3.653,0.539c-7.426,1.695-14.043,5.622-19.082,11.406c-4.996,5.73-16.184,17.051-34.825,28.614
		c-30.027,18.691-50.094,24.019-94.034,35.648l-0.516,0.168c-11.801,3.094-20.851,5.41-28.394,7.278
		c-15.215,3.82-24.363,6.16-36.953,10.641c-19.684,7.007-33.34,18.996-40.606,35.574c-5.813,13.426-6.84,28.84-2.973,45.805
		c3.867,16.973,11.469,30.418,22.527,39.996c4.301,3.699,9.016,6.633,14.043,8.965c0.09,0.043,0.179,0.086,0.27,0.125
		c1.656,0.758,3.343,1.45,5.074,2.059l0,0c9.726,3.43,20.605,4.602,32.621,3.32c2.211-0.25,4.375-0.492,6.48-0.77l6.258,13.098
		c3.472,7.274,9.714,12.758,17.117,15.359l18.886,82.879c3.551,15.574,17.196,26.535,33.196,26.621l12.578,0.106
		c2.625,0.008,5.282-0.293,7.821-0.875c7.332-1.668,13.71-5.542,18.554-11.285c6.606-7.758,9.359-18.016,7.578-28.047
		l-14.707-83.781l6.469-1.473l-0.551-8.398l-1.664-24.324c17.149-1.992,31.328-1.946,49.375,0.039
		c21.824,2.39,36.797,7.695,43.789,10.695c2.226,0.961,4.527,1.598,6.852,2.082c0.086,0.02,0.171,0.027,0.258,0.043
		c2.211,0.446,4.438,0.664,6.687,0.684c0.106,0.003,0.207,0.034,0.313,0.034c0.141,0,0.281-0.023,0.426-0.027
		c1.164-0.011,2.324-0.066,3.485-0.195c0.179-0.019,0.355-0.058,0.534-0.078c1.196-0.152,2.395-0.258,3.582-0.531
		c7.481-1.702,14.05-5.621,19.141-11.367c5.195-5.976,8.359-13.55,8.871-21.488c1.445-21.758-2.168-53.758-9.914-87.746
		C320.505,162.416,309.896,132.01,299.162,113.022z M299.22,286.854c-9.371-3.918-27.027-9.965-51.726-12.699
		c-39.809-4.293-62.942,0.172-109.664,9.11c-5.988,1.16-11.258,2.16-15.926,3.125c-8.426-10.184-14.993-23.512-18.465-38.754
		c-3.473-15.242-3.321-30.055-0.141-42.879l-0.188,0.043l-0.09-0.016c0.09-0.027,0.18-0.054,0.266-0.074l0.012,0.047
		c4.617-1.203,9.809-2.539,15.695-4.133c45.984-12.195,68.77-18.191,102.785-39.305c19.137-11.953,31.797-23.812,39.027-31.582
		c0.73-0.778,1.473-1.559,2.122-2.278c9.316,17.446,19.046,46.222,26.254,77.844c6.398,28.07,10.012,54.945,10.16,74.457
		C299.357,282.24,299.326,284.632,299.22,286.854z M117.349,326.151c-0.086,0.066-0.23,0.102-0.324,0.121
		c-0.863,0.199-1.668-0.218-2.043-0.996l-5.93-12.343l-1.343-2.836c1.636-0.325,3.316-0.657,5.046-1
		c7.461-1.551,16.77-3.418,28.898-5.73l0.527-0.122c8.84-1.711,16.766-3.211,24.082-4.527l1.078,16.039l-49.164,11.054
		L117.349,326.151z M132.946,341.256l28.394-6.375l16.234,92.258c0.309,1.797-0.195,3.574-1.343,4.946
		c-0.867,1.054-2.027,1.722-3.321,2.015c-0.434,0.102-0.922,0.164-1.374,0.164l-12.57-0.062c-2.887-0.046-5.29-1.969-5.922-4.75
		l-19.89-87.27L132.946,341.256z M27.134,253.78c-0.461-0.246-0.887-0.59-1.301-0.957c-0.184-0.16-0.363-0.328-0.539-0.512
		c-0.41-0.434-0.805-0.902-1.156-1.449c-0.062-0.094-0.11-0.207-0.168-0.305c-1.172-1.954-1.965-4.508-2.27-7.414
		c-0.016-0.14-0.027-0.277-0.039-0.418c-0.176-2.012-0.133-4.172,0.187-6.398c1.36-9.286,6.754-16.164,12.078-15.356
		c0.516,0.074,0.992,0.27,1.465,0.477c0.164,0.07,0.336,0.106,0.496,0.191c0.458,0.246,0.879,0.586,1.29,0.95
		c0.187,0.168,0.367,0.34,0.546,0.527c0.41,0.438,0.805,0.898,1.153,1.446c0.054,0.082,0.094,0.179,0.144,0.266
		c1.184,1.961,1.989,4.535,2.286,7.465c0.015,0.129,0.027,0.258,0.035,0.39c0.175,2.016,0.125,4.176-0.207,6.41
		c-1.313,9.274-6.715,16.102-12.031,15.347c-0.535-0.074-1.027-0.273-1.516-0.488C27.439,253.885,27.282,253.858,27.134,253.78z" style="fill: rgb(75, 75, 75);"></path>
	<path class="st0" d="M507.958,151.839c-9.484-41.606-34.64-77.031-70.843-99.754c-5.317-3.336-11.75-3.246-16.89-0.434
		c-0.031,0.02-0.063,0.035-0.094,0.055c-2.382,1.32-4.507,3.175-6.058,5.648c-4.91,7.821-2.55,18.137,5.27,23.043
		c28.629,17.973,48.527,45.98,56.019,78.867c7.497,32.89,1.699,66.75-16.312,95.347c-4.922,7.813-2.582,18.133,5.23,23.055
		c3.91,2.465,8.446,3.105,12.625,2.152c4.164-0.95,7.969-3.484,10.426-7.386C510.114,236.272,517.438,193.44,507.958,151.839z" style="fill: rgb(75, 75, 75);"></path>
	<path class="st0" d="M392.673,122.78c-5.316-3.343-11.758-3.254-16.902-0.441c-0.027,0.015-0.054,0.031-0.082,0.046
		c-2.383,1.324-4.512,3.176-6.062,5.649c-4.918,7.816-2.562,18.133,5.254,23.046c9.703,6.102,16.45,15.606,18.992,26.75
		c2.539,11.152,0.574,22.637-5.527,32.34c-4.914,7.816-2.562,18.136,5.254,23.046c3.906,2.461,8.442,3.102,12.61,2.149
		c4.172-0.95,7.981-3.493,10.438-7.398c10.855-17.266,14.344-37.707,9.82-57.562C421.942,150.549,409.938,133.636,392.673,122.78z" style="fill: rgb(75, 75, 75);"></path>
</g>
</svg>
