<?xml version="1.0" encoding="UTF-8"?>
<svg id="_レイヤー_1のコピー_10" data-name="レイヤー 1のコピー 10" xmlns="http://www.w3.org/2000/svg" viewBox="0 0 1080 1080">
  <path id="_パス_3" data-name="パス 3" d="M225,0H855c124.27,0,225,100.74,225,225V855c0,124.27-100.74,225-225,225H225C100.74,1080,0,979.26,0,855V225C0,100.74,100.74,0,225,0Z" style="fill: none;"/>
  <g>
    <path d="M998.28,401.94l-415.34-191.19c-13.47-6.21-27.82-9.34-42.65-9.34s-29.17,3.13-42.65,9.34L82.3,401.94c-6.87,3.17-11.3,10.09-11.3,17.65s4.43,14.47,11.3,17.65l415.34,191.19c13.47,6.21,27.82,9.35,42.65,9.35s29.18-3.15,42.65-9.35l327.79-150.88v151.93c-13.01,1.47-23.15,12.54-23.15,25.92,0,11.66,7.71,21.75,18.71,24.96l-22.17,146.27h102.06l-22.16-146.27c10.99-3.22,18.71-13.31,18.71-24.96,0-13.38-10.14-24.45-23.15-25.92v-174.42l38.71-17.82c6.86-3.17,11.3-10.09,11.3-17.65s-4.44-14.47-11.3-17.65Z" style="fill: none; stroke: #4c4b4c; stroke-miterlimit: 10; stroke-width: 40px;"/>
    <path d="M540.29,707c-20.62,0-40.59-4.38-59.37-13.02l-203.15-93.52v186.32c0,40.91,123.6,92.8,262.52,92.8s262.52-51.89,262.52-92.8v-186.32l-203.16,93.52c-18.77,8.64-38.74,13.02-59.36,13.02Z" style="fill: none; stroke: #4c4b4c; stroke-miterlimit: 10; stroke-width: 40px;"/>
  </g>
</svg>