<?xml version="1.0" encoding="UTF-8"?>
<svg id="_レイヤー_1のコピー_11" data-name="レイヤー 1のコピー 11" xmlns="http://www.w3.org/2000/svg" viewBox="0 0 1080 1080">
  <path id="_パス_3" data-name="パス 3" d="M225,0H855c124.27,0,225,100.74,225,225V855c0,124.27-100.74,225-225,225H225C100.74,1080,0,979.26,0,855V225C0,100.74,100.74,0,225,0Z" style="fill: none;"/>
  <path d="M872.16,286.76v-59.49c0-3.75-1.53-7.43-4.2-10.1-2.67-2.64-6.32-4.18-10.1-4.18h-117.73c-6.61,0-13.96,.85-22.13,2.33-14.25,2.59-30.96,7.24-48.72,13.8-26.65,9.86-55.6,23.9-81.27,41.93-12.8,9.04-24.8,19.04-35.22,30.11-4.55,4.84-8.75,9.91-12.64,15.15-8.49-11.55-18.82-22.1-30.19-31.67-27.12-22.79-60.38-40.4-91.26-52.58-15.44-6.05-30.3-10.76-43.62-14.01-6.66-1.61-12.93-2.88-18.74-3.73-5.84-.85-11.18-1.32-16.15-1.32h-117.76c-3.75,0-7.43,1.53-10.07,4.18-2.67,2.67-4.2,6.35-4.2,10.1v59.48H107V831.8l394.56,23.79v11.9h77.2v-11.9l394.55-23.79V286.76h-101.15ZM478.77,806.74c-21.31-6.16-44.73-11.13-67.1-14.91-22.39-3.81-43.68-6.35-60.78-7.61-33.31-2.38-85.68-4.52-129.91-6.05-27.5-.98-51.79-1.69-66.25-2.09V333.61h53.43v402.96c0,3.81,1.53,7.45,4.2,10.12,2.64,2.67,6.32,4.18,10.07,4.18h117.75c4.13-.03,10.05,.58,17,1.85,12.19,2.25,27.57,6.48,43.97,12.51,24.64,9.09,51.66,22.31,74.71,38.49,1.69,1.22,3.33,2.41,4.94,3.6-.69-.19-1.35-.42-2.04-.58Zm47.11,2.04c-5-5.16-10.34-10.12-15.92-14.83-27.12-22.79-60.38-40.4-91.26-52.56-15.44-6.08-30.3-10.79-43.62-14.01-6.66-1.64-12.93-2.86-18.74-3.7-5.84-.9-11.18-1.38-16.15-1.38h-103.45V241.58h103.45c4.13-.03,10.05,.55,17,1.82,12.19,2.22,27.57,6.45,43.97,12.53,24.64,9.09,51.66,22.26,74.71,38.49,11.53,8.09,22.05,16.97,30.83,26.31,8.01,8.49,14.51,17.42,19.19,26.52v461.52h0Zm28.55,.03V347.36c7.35-14.38,19.35-28.29,34.32-40.87,23.77-20.04,54.7-36.59,83.33-47.85,14.28-5.61,28.02-9.94,39.87-12.82,5.92-1.45,11.39-2.51,16.18-3.22,4.79-.71,8.88-1.03,12-1.01h103.45v480.71h-103.45c-6.61,.05-13.96,.85-22.13,2.35-14.25,2.59-30.96,7.27-48.72,13.8-26.65,9.86-55.6,23.93-81.27,41.93-12.16,8.54-23.53,18-33.58,28.42Zm371.16-33.1h-133.67c-7.45,0-16.47,.53-26.78,1.51-18.06,1.74-40.08,4.84-63.4,8.91-35,6.13-72.81,14.49-104.14,24.01-1.03,.32-1.98,.61-2.99,.9,22.87-17.87,51.13-32.73,77.46-43.07,14.28-5.63,28.02-9.97,39.87-12.82,5.92-1.45,11.39-2.54,16.18-3.22,4.79-.71,8.88-1.03,12-1.03h117.73c3.78,0,7.43-1.51,10.1-4.18s4.2-6.32,4.2-10.12V333.61h53.43v442.09Z" style="fill: #4c4b4c;"/>
</svg>