<svg xmlns="http://www.w3.org/2000/svg" width="328.211" height="198.279" viewBox="0 0 328.211 198.279"><path d="M339.06,1052.035c-16.935,0-32.293,11.391-45.563,26.114s-24.6,33.284-32.607,50.062c-8.167,16.754-12.364,42.487-10.419,66.413.973,11.967,3.515,23.463,8.372,33.1s12.324,17.56,22.646,20.926c10.158,3.313,19.9,1.34,28.608-2.925s16.9-10.629,26.073-17.094c18.341-12.93,40.132-26.5,74.962-26.5.906,0,1.858.014,2.84.036l.134,0,.134,0c.978-.022,1.929-.036,2.837-.036,34.83,0,56.621,13.568,74.962,26.5,9.171,6.465,17.363,12.828,26.073,17.094s18.45,6.238,28.608,2.925c10.322-3.366,17.789-11.29,22.646-20.926s7.4-21.132,8.372-33.1c1.945-23.926-2.252-49.659-10.419-66.413-8.01-16.778-19.344-35.346-32.607-50.062s-28.628-26.114-45.563-26.114c-15.682,0-25.209,6.557-34.337,11.98s-18.384,10.31-37.736,10.31q-1.328,0-2.654-.072l-.318-.017-.318.017q-1.329.071-2.655.072c-19.352,0-28.607-4.887-37.736-10.31s-18.655-11.98-34.337-11.98Zm0,11.895c12.552,0,18.63,4.589,28.263,10.311s22.3,11.979,43.81,11.979c1.005,0,1.993-.033,2.972-.081.98.048,1.968.081,2.973.081,21.514,0,34.179-6.257,43.811-11.979s15.709-10.311,28.262-10.311c11.3,0,24.549,8.672,36.728,22.183s23.129,31.339,30.722,47.248l.011.023.011.022c6.688,13.711,11.031,38.493,9.262,60.254-.885,10.88-3.264,21.024-7.138,28.71s-8.945,12.765-15.713,14.971c-6.931,2.26-12.61,1.167-19.688-2.3s-15.047-9.5-24.452-16.133c-18.81-13.261-43.83-28.672-81.816-28.672-.988,0-1.982.016-2.974.038-.988-.021-1.981-.038-2.971-.038-37.986,0-63.006,15.411-81.815,28.672-9.405,6.631-17.373,12.667-24.452,16.133s-12.757,4.559-19.688,2.3c-6.767-2.207-11.839-7.286-15.713-14.971s-6.253-17.829-7.138-28.71c-1.769-21.761,2.574-46.543,9.262-60.254l.011-.022.011-.023c7.593-15.908,18.543-33.736,30.722-47.248s25.427-22.183,36.727-22.183Zm156.767,39.117a11.526,11.526,0,1,0,11.526,11.526,11.526,11.526,0,0,0-11.526-11.526Zm-162.87,2.6a4.574,4.574,0,0,0-4.584,4.584v20.152H308.22a4.575,4.575,0,0,0-4.585,4.585V1146.4a4.575,4.575,0,0,0,4.585,4.585h20.152v20.152a4.574,4.574,0,0,0,4.584,4.584h11.432a4.574,4.574,0,0,0,4.584-4.584v-20.152h20.152a4.575,4.575,0,0,0,4.585-4.585v-11.431a4.575,4.575,0,0,0-4.585-4.585H348.973v-20.152a4.574,4.574,0,0,0-4.584-4.584ZM469.369,1129.5A11.526,11.526,0,1,0,480.9,1141.03a11.526,11.526,0,0,0-11.527-11.525Zm52.916,0a11.526,11.526,0,1,0,11.526,11.526,11.526,11.526,0,0,0-11.526-11.526Zm-26.458,26.458a11.526,11.526,0,1,0,11.526,11.526,11.526,11.526,0,0,0-11.526-11.526Z" transform="translate(-250 -1052.035)"/></svg>