<?xml version="1.0" encoding="UTF-8"?>
<svg id="_レイヤー_1のコピー_14" data-name="レイヤー 1のコピー 14" xmlns="http://www.w3.org/2000/svg" viewBox="0 0 1080 1080">
  <path id="_パス_3" data-name="パス 3" d="M225,0H855c124.27,0,225,100.74,225,225V855c0,124.27-100.74,225-225,225H225C100.74,1080,0,979.26,0,855V225C0,100.74,100.74,0,225,0Z" style="fill: none;"/>
  <g>
    <path d="M866.65,292.21c-31.5-31.48-72.97-53.12-118.99-60.52-14.45-37.46-38.52-70.07-69.3-94.59-38.78-30.92-88.49-49.23-141.95-48.53-54.02,.67-103.7,20.65-141.86,53.17-28.63,24.39-51.07,55.85-64.56,91.73-59.52,1.04-113.47,26.09-151.97,65.65-38.79,39.74-62.52,94.72-61.72,154.64,.75,59.93,25.9,114.28,65.7,153.01,39.74,38.79,94.72,62.52,154.64,61.72,82.45-1.06,298.02-3.85,379.1-4.91,59.93-.75,114.28-25.9,152.99-65.7,38.79-39.74,62.55-94.69,61.75-154.64-.75-58.96-25.13-112.5-63.82-151.02Zm-59.35,245.79c-23.64,24.26-56.13,39.33-92.65,39.82-81.11,1.03-296.67,3.83-379.12,4.88-36.51,.46-69.37-13.78-93.68-37.39-24.21-23.67-39.28-56.13-39.8-92.67-.44-36.51,13.81-69.37,37.39-93.68,23.69-24.18,56.16-39.28,92.67-39.77,7.36-.1,14.87,.57,22.79,1.84l41.29,6.65,7.67-41.1c5.9-31.54,22.61-59.38,46.25-79.5,23.66-20.12,53.87-32.3,87.41-32.74,33.19-.41,63.36,10.74,87.43,29.87,24.02,19.13,41.51,46.09,48.58,76.94l7.53,32.84,33.69,.47c35.68,.47,67.73,14.99,91.32,38.46,23.53,23.56,38.15,55.49,38.64,91.41,.44,36.54-13.81,69.37-37.42,93.65Z" style="fill: #4c4b4c;"/>
    <path d="M340.08,713.97s-33.74,31.5-41.72,41.22c-3.04,3.7-5.29,8.13-6.56,13.05-4.52,17.93,6.34,36.14,24.28,40.69,17.93,4.49,36.14-6.34,40.69-24.28,1.24-4.94,1.32-9.88,.44-14.58-2.41-12.35-17.13-56.09-17.13-56.09Z" style="fill: #4c4b4c;"/>
    <path d="M300.11,872.19s-33.74,31.53-41.72,41.25c-3.01,3.73-5.29,8.11-6.53,13.05-4.55,17.93,6.34,36.14,24.28,40.66,17.93,4.55,36.14-6.32,40.66-24.28,1.24-4.91,1.35-9.88,.44-14.55-2.41-12.35-17.13-56.12-17.13-56.12Z" style="fill: #4c4b4c;"/>
    <path d="M540.43,711.36s-33.74,31.53-41.72,41.25c-3.01,3.7-5.29,8.11-6.53,13.02-4.55,17.96,6.32,36.17,24.25,40.71,17.93,4.49,36.17-6.37,40.69-24.28,1.24-4.97,1.32-9.88,.41-14.61-2.38-12.32-17.1-56.09-17.1-56.09Z" style="fill: #4c4b4c;"/>
    <path d="M500.45,869.61s-33.74,31.53-41.69,41.25c-3.04,3.73-5.32,8.11-6.56,13.02-4.55,17.96,6.32,36.17,24.28,40.69,17.93,4.52,36.14-6.34,40.66-24.28,1.26-4.94,1.32-9.88,.44-14.55-2.38-12.35-17.13-56.12-17.13-56.12Z" style="fill: #4c4b4c;"/>
    <path d="M740.77,708.78s-33.74,31.53-41.72,41.25c-3.04,3.7-5.32,8.11-6.56,13.02-4.52,17.93,6.37,36.17,24.28,40.69,17.96,4.52,36.17-6.34,40.69-24.28,1.26-4.94,1.32-9.88,.44-14.58-2.41-12.32-17.13-56.09-17.13-56.09Z" style="fill: #4c4b4c;"/>
    <path d="M700.79,867.02s-33.71,31.5-41.69,41.25c-3.04,3.7-5.29,8.08-6.56,13.02-4.52,17.93,6.34,36.14,24.28,40.69,17.93,4.52,36.14-6.34,40.69-24.28,1.24-4.94,1.32-9.88,.41-14.58-2.41-12.35-17.13-56.09-17.13-56.09Z" style="fill: #4c4b4c;"/>
  </g>
</svg>