<?xml version="1.0" encoding="UTF-8"?>
<svg id="_レイヤー_1" data-name="レイヤー 1" xmlns="http://www.w3.org/2000/svg" viewBox="0 0 150 300">
  <path d="M99.94,166.28v-16.44h20.33v-6.5h-20.33v-18.5h20.33v-6.5h-20.33v-18.5h20.33v-6.5h-20.33v-18.5h20.33v-6.5h-20.33v-6.64c0-13.75-11.19-24.94-24.94-24.94s-24.94,11.19-24.94,24.94v104.58c-16.55,9.11-26.75,26.28-26.75,45.28,0,28.51,23.19,51.7,51.7,51.7s51.7-23.19,51.7-51.7c0-19-10.2-36.17-26.75-45.28Zm-24.94,90.47c-24.92,0-45.2-20.28-45.2-45.2,0-17.2,9.56-32.68,24.96-40.41,1.1-.55,1.79-1.67,1.79-2.9V61.69c0-10.17,8.27-18.44,18.44-18.44s18.44,8.27,18.44,18.44v106.54c0,1.23,.69,2.35,1.79,2.91,15.4,7.73,24.96,23.21,24.96,40.41,0,24.92-20.28,45.2-45.2,45.2Z" style="fill: #19264a;"/>
  <path d="M80,189.91V76.65h-10v113.26c-10.66,2.3-18.65,11.77-18.65,23.11,0,13.06,10.59,23.65,23.65,23.65s23.65-10.59,23.65-23.65c0-11.34-7.99-20.82-18.65-23.11Z" style="fill: #19264a;"/>
</svg>