<?xml version="1.0" encoding="UTF-8"?>
<svg id="_レイヤー_1" data-name="レイヤー 1" xmlns="http://www.w3.org/2000/svg" viewBox="0 0 1080 1080">
  <path d="M924.24,467.15l-88.03-4.07c-8.04-.36-15.14-5.35-18.2-12.77l-18.14-43.65c-3.05-7.45-1.57-15.99,3.87-21.93l59.37-65.15c7.44-8.18,7.17-20.81-.66-28.66l-73.19-73.2c-7.86-7.83-20.5-8.13-28.69-.65l-65.12,59.37c-5.95,5.43-14.51,6.94-21.95,3.84l-43.65-18.11c-7.44-3.07-12.4-10.17-12.76-18.23l-4.08-88c-.52-11.08-9.65-19.8-20.71-19.8h-103.57c-11.06,0-20.22,8.72-20.74,19.8l-4.05,88c-.36,8.06-5.32,15.16-12.76,18.23l-43.65,18.11c-7.47,3.1-16.02,1.59-21.95-3.84l-65.15-59.37c-8.19-7.48-20.83-7.19-28.69,.65l-73.16,73.2c-7.86,7.84-8.13,20.48-.67,28.66l59.37,65.15c5.44,5.94,6.89,14.48,3.81,21.93l-18.08,43.65c-3.08,7.42-10.16,12.41-18.23,12.77l-88,4.07c-11.06,.5-19.8,9.64-19.8,20.72v103.56c0,11.06,8.74,20.22,19.8,20.72l88,4.07c8.07,.36,15.14,5.35,18.23,12.77l18.08,43.65c3.08,7.45,1.63,15.99-3.81,21.93l-59.37,65.12c-7.5,8.22-7.19,20.84,.64,28.69l73.25,73.2c7.83,7.84,20.44,8.12,28.66,.67l65.12-59.39c5.92-5.43,14.51-6.92,21.95-3.84l43.65,18.09c7.44,3.08,12.4,10.19,12.76,18.24l4.05,88c.51,11.06,9.67,19.8,20.74,19.8h103.57c11.06,0,20.19-8.74,20.71-19.8l4.08-88c.36-8.06,5.32-15.16,12.76-18.24l43.65-18.09c7.44-3.08,15.99-1.59,21.95,3.84l65.12,59.39c8.19,7.45,20.83,7.18,28.69-.67l73.19-73.2c7.83-7.84,8.1-20.47,.66-28.69l-59.37-65.12c-5.44-5.94-6.95-14.48-3.87-21.93l18.14-43.65c3.05-7.42,10.16-12.41,18.2-12.77l88.03-4.07c11.06-.5,19.77-9.66,19.77-20.72v-103.56c0-11.08-8.7-20.22-19.76-20.72Zm-383.72,204.3c-72.76,0-131.81-59.01-131.81-131.79s59.04-131.81,131.81-131.81,131.77,59.01,131.77,131.81-59.01,131.79-131.77,131.79Z" style="fill: none; stroke: #4c4b4c; stroke-miterlimit: 10; stroke-width: 40px;"/>
</svg>