<!--?xml version="1.0" encoding="utf-8"?-->
<!-- Generator: Adobe Illustrator 18.1.1, SVG Export Plug-In . SVG Version: 6.00 Build 0)  -->

<svg version="1.1" id="_x31_0" xmlns="http://www.w3.org/2000/svg" xmlns:xlink="http://www.w3.org/1999/xlink" x="0px" y="0px" viewBox="0 0 512 512" style="width: 256px; height: 256px; opacity: 1;" xml:space="preserve">
<style type="text/css">
	.st0{fill:#374149;}
</style>
<g>
	<path class="st0" d="M273.211,286.965H238.27c-1.211,0-2.187,0.949-2.187,2.121v33.34c0,1.172,0.976,2.125,2.187,2.125h34.942
		c1.21,0,2.191-0.953,2.191-2.125v-33.34C275.402,287.914,274.422,286.965,273.211,286.965z" style="fill: rgb(75, 75, 75);"></path>
	<path class="st0" d="M302.586,148.73c-0.801-0.672-1.797-1.164-2.64-1.797c-1.27-0.946-2.586-1.844-3.962-2.695
		c-1.926-1.199-3.953-2.305-6.078-3.313c-1.39-0.664-2.821-1.282-4.293-1.863c-1.172-0.461-2.188-1.066-3.414-1.477
		c-7.926-2.66-16.68-3.988-26.262-3.988c-9.062,0-17.402,1.457-25.023,4.367c-7.622,2.914-14.309,7.074-20.059,12.477
		c-0.781,0.738-1.382,1.664-2.125,2.445c-1.218,1.274-2.382,2.61-3.492,4.004c-1.406,1.762-2.719,3.614-3.95,5.558
		c-0.93,1.469-1.808,2.989-2.637,4.559c-0.558,1.058-1.266,1.961-1.777,3.066c-2.282,4.91-4.012,10.199-5.192,15.867
		c-1.078,5.168,3.118,9.972,8.555,9.972h15.774c5.789,0,10.714-3.839,12.27-9.246c4.617-16.043,13.922-24.066,27.918-24.066
		c4.18,0,7.992,0.656,11.434,1.965c3.438,1.309,6.402,3.144,8.883,5.508c2.484,2.367,4.422,5.129,5.816,8.297
		c1.39,3.168,2.09,6.648,2.09,10.449c0,2.027-0.152,3.906-0.457,5.637c-0.305,1.73-1.11,3.59-2.418,5.574
		c-1.305,1.984-3.246,4.266-5.813,6.84c-2.574,2.574-6.078,5.679-10.519,9.308c-10.282,8.278-17.379,16.297-21.301,24.066
		c-2.004,3.969-3.462,9.329-4.375,16.086c-0.902,6.672-1.402,7.214-1.5,16.586c0,0.055-0.004,0.098-0.004,0.153h0.004
		c0,0.058-0.004,0.102-0.004,0.16h33.844c0-14.184,1-15.547,3.004-19.687c0.957-2.11,2.874-4.622,5.75-7.535
		c2.875-2.914,6.664-6.27,11.367-10.07c10.886-8.695,18.293-16.762,22.215-24.192c4.179-7.347,6.273-15.492,6.273-24.445
		c0-7.766-1.57-14.946-4.706-21.531C312.645,159.183,308.246,153.504,302.586,148.73z" style="fill: rgb(75, 75, 75);"></path>
	<path class="st0" d="M433.394,67.676C385.558,27.774,322.554,5.793,256,5.793c-66.558,0-129.558,21.981-177.398,61.883
		C27.914,109.965,0,167.035,0,228.382c0,61.344,27.914,118.418,78.602,160.699c44.289,36.946,101.57,58.524,162.641,61.524
		l56.422,44.062c9.734,7.602,21.57,11.539,33.531,11.539c6.887,0,13.817-1.305,20.41-3.973c18.039-7.293,30.82-23.657,33.523-42.926
		l5.848-41.672C465.438,377.492,512,306.043,512,228.382C512,167.035,484.082,109.965,433.394,67.676z M331.047,451.629
		l-70.711-55.222c-1.45,0.027-2.883,0.094-4.336,0.094c-111.305,0-201.535-75.27-201.535-168.118
		c0-92.847,90.23-168.121,201.535-168.121c111.301,0,201.531,75.274,201.531,168.121c0,16.84-2.973,33.098-8.5,48.434
		c-0.11,0.301-0.246,0.598-0.359,0.898c-1.254,3.406-2.618,6.774-4.118,10.082c-0.671,1.473-1.449,2.906-2.168,4.359
		c-1.058,2.153-2.09,4.317-3.254,6.422c-0.973,1.762-2.066,3.473-3.114,5.207c-1.078,1.786-2.109,3.594-3.262,5.344
		c-1.031,1.566-2.172,3.078-3.262,4.617c-1.34,1.891-2.641,3.801-4.066,5.641c-0.828,1.078-1.742,2.102-2.602,3.164
		c-1.847,2.27-3.687,4.547-5.66,6.734c-0.363,0.402-0.758,0.782-1.121,1.18c-19.657,21.394-45.305,38.766-74.898,50.293
		l-6.637,47.309l-2.278,15.851L331.047,451.629z" style="fill: rgb(75, 75, 75);"></path>
</g>
</svg>
