<!--?xml version="1.0" encoding="utf-8"?-->
<!-- Generator: Adobe Illustrator 19.1.1, SVG Export Plug-In . SVG Version: 6.00 Build 0)  -->
<svg version="1.1" id="_x31_0" xmlns="http://www.w3.org/2000/svg" xmlns:xlink="http://www.w3.org/1999/xlink" x="0px" y="0px" viewBox="0 0 512 512" style="width: 256px; height: 256px; opacity: 1;" xml:space="preserve">
<style type="text/css">
	.st0{fill:#374149;}
</style>
<g>
	<path class="st0" d="M207.864,401.859L207.864,401.859h-0.161V512h139.211V401.859H208.289H207.864z M317.235,482.32h-37.829
		l-29.476-0.125l63.222-50.656h4.082v50.629V482.32z" style="fill: rgb(75, 75, 75);"></path>
	<path class="st0" d="M418.781,88.008L341.64,10.867L330.773,0h-15.367h-77.14h-41.672h-15.367L170.36,10.867L93.219,88.008
		L82.352,98.875v15.367v77.141v37.101h37.102h77.141h17.09l12.039,0.114l-13.691,13.691l-10.867,10.867v15.371v66.5v37.102h37.102
		h77.14h37.102v-37.102v-51.133l66.274-66.278l10.867-10.863v-15.37v-77.141V98.875L418.781,88.008z M392.547,114.242v77.141
		l-0.16,0.16l0,0l0.16-0.16h-77.141v77.14l45.196-45.195l0.038-0.039l-45.234,45.238v66.457v0.043h-76.828h-0.312v-66.5
		l77.14-77.144v-77.141h-77.14h-41.672v77.141h-77.141v-77.141h77.141V37.176v-0.074l0,0h41.672h77.14v76.746v0.234l0,0v0.16
		H392.547z M233.696,220.469v-29.086v-40.039h4.57h40.038v24.672l-26.202,26.202L233.696,220.469z" style="fill: rgb(75, 75, 75);"></path>
</g>
</svg>
