<!--?xml version="1.0" encoding="utf-8"?-->
<!-- Generator: Adobe Illustrator 18.1.1, SVG Export Plug-In . SVG Version: 6.00 Build 0)  -->

<svg version="1.1" id="_x31_0" xmlns="http://www.w3.org/2000/svg" xmlns:xlink="http://www.w3.org/1999/xlink" x="0px" y="0px" viewBox="0 0 512 512" style="width: 256px; height: 256px; opacity: 1;" xml:space="preserve">
<style type="text/css">
	.st0{fill:#374149;}
</style>
<g>
	<path class="st0" d="M508.256,211.008L259.057,86.364c-1.91-0.954-4.156-0.954-6.066,0L3.749,211.008c-5,2.5-4.996,9.629,0,12.125
		l35.418,17.711v83.454c0,12.617-2.355,25.289-8.152,36.492c-1.821,3.515-2.485,7.718-1.489,12.137
		c1.446,6.414,6.629,11.637,13.031,13.106c11.586,2.66,21.875-6.07,21.875-17.203c0-2.52-0.531-4.906-1.488-7.07
		c-5.246-11.875-8.618-24.485-8.618-37.461v-52.699l0.07-23.137l33.57,16.785c6.047,3.023,13.114,3.386,19.367,0.817
		c42.09-17.282,92.84-26.305,148.691-26.305c55.848,0,106.555,9.023,148.633,26.305c6.258,2.57,13.325,2.206,19.371-0.817
		l84.223-42.114C513.249,220.636,513.249,213.508,508.256,211.008z" style="fill: rgb(75, 75, 75);"></path>
	<path class="st0" d="M256.025,276.844c-42.996,0-82.156,5.863-115.301,16.473c-16.722,5.305-31.882,11.824-45.27,19.351v89.329
		c0,13.453,10.902,24.355,24.356,24.355h0.05c5.551,0,11.176-1.621,15.258-5.383c0.503-0.461,1.042-0.89,1.613-1.285
		c16.422-11.317,57.649-27.133,119.293-27.133c61.641,0,102.821,15.816,119.29,27.133c0.574,0.394,1.113,0.824,1.613,1.285
		c4.086,3.762,9.707,5.383,15.262,5.383c13.45,0,24.356-10.902,24.356-24.355v-89.329c-13.387-7.527-28.598-14.046-45.27-19.351
		C338.131,282.707,299.021,276.844,256.025,276.844z" style="fill: rgb(75, 75, 75);"></path>
</g>
</svg>
