<!--?xml version="1.0" encoding="utf-8"?-->
<!-- Generator: Adobe Illustrator 15.1.0, SVG Export Plug-In . SVG Version: 6.00 Build 0)  -->

<svg version="1.1" id="_x32_" xmlns="http://www.w3.org/2000/svg" xmlns:xlink="http://www.w3.org/1999/xlink" x="0px" y="0px" width="512px" height="512px" viewBox="0 0 512 512" style="width: 256px; height: 256px; opacity: 1;" xml:space="preserve">
<style type="text/css">

	.st0{fill:#4B4B4B;}

</style>
<g>
	<path class="st0" d="M112,166.016c4.531,0,8.813-0.922,12.844-2.391l70.625,100.297c-5.422,6.578-8.813,14.891-8.813,24.078
		c0,21,17.016,38.016,38,38.016c21,0,38.031-17.016,38.031-38.016c0-7.563-2.281-14.563-6.078-20.469l55.688-61.719
		c5.141,2.594,10.891,4.188,17.047,4.188c3.875,0,7.531-0.75,11.063-1.813L414,324.469c-6.156,6.75-10.016,15.656-10.016,25.531
		c0,21,17.016,38.016,38.016,38.016S480.016,371,480.016,350S463,311.984,442,311.984c-3.875,0-7.547,0.75-11.063,1.828
		l-73.609-116.281c6.172-6.766,10.016-15.672,10.016-25.531c0-21-17.016-38.031-38-38.031c-21,0-38.031,17.031-38.031,38.031
		c0,7.547,2.281,14.547,6.078,20.469l-55.688,61.719c-5.141-2.594-10.891-4.203-17.047-4.203c-4.531,0-8.813,0.922-12.844,2.391
		l-70.625-100.297c5.438-6.578,8.828-14.891,8.828-24.078c0-21-17.016-38.016-38.016-38.016S73.984,107,73.984,128
		S91,166.016,112,166.016z" style="fill: rgb(75, 75, 75);"></path>
	<polygon class="st0" points="24,488 24,0 0,0 0,512 512,512 512,488 	" style="fill: rgb(75, 75, 75);"></polygon>
</g>
</svg>
